<svg height="2670" width="720" xmlns="http://www.w3.org/2000/svg">
<rect height="2670" fill="#555" width="720"></rect>
<text fill="#7f7" font-family="Courier New" font-size="12" xml:space="preserve">
<tspan x="10" y="26">23 megabytes installed</tspan>
<tspan x="10" y="42"></tspan>
<tspan x="10" y="58">node_modules</tspan>
<tspan x="10" y="74">└─┬ gulp-fontgen@0.2.5 </tspan>
<tspan x="10" y="90">  ├─┬ fontfacegen@0.2.1 </tspan>
<tspan x="10" y="106">  │ ├─┬ mkdirp@0.5.1 </tspan>
<tspan x="10" y="122">  │ │ └── minimist@0.0.8 </tspan>
<tspan x="10" y="138">  │ ├─┬ ttf2eot@2.0.0 </tspan>
<tspan x="10" y="154">  │ │ ├─┬ argparse@1.0.9 </tspan>
<tspan x="10" y="170">  │ │ │ └── sprintf-js@1.0.3 </tspan>
<tspan x="10" y="186">  │ │ └── microbuffer@1.0.0 </tspan>
<tspan x="10" y="202">  │ ├─┬ ttf2svg@0.0.7 </tspan>
<tspan x="10" y="218">  │ │ └── lodash@2.4.2 </tspan>
<tspan x="10" y="234">  │ ├─┬ ttf2woff2@2.0.3 </tspan>
<tspan x="10" y="250">  │ │ ├── bindings@1.2.1 </tspan>
<tspan x="10" y="266">  │ │ ├── bufferstreams@1.1.1 </tspan>
<tspan x="10" y="282">  │ │ ├── nan@2.6.2 </tspan>
<tspan x="10" y="298">  │ │ └─┬ node-gyp@3.6.0 </tspan>
<tspan x="10" y="314">  │ │   ├── fstream@1.0.11 </tspan>
<tspan x="10" y="330">  │ │   ├─┬ glob@7.1.1 </tspan>
<tspan x="10" y="346">  │ │   │ ├── fs.realpath@1.0.0 </tspan>
<tspan x="10" y="362">  │ │   │ ├─┬ inflight@1.0.6 </tspan>
<tspan x="10" y="378">  │ │   │ │ └── wrappy@1.0.2 </tspan>
<tspan x="10" y="394">  │ │   │ ├── once@1.4.0 </tspan>
<tspan x="10" y="410">  │ │   │ └── path-is-absolute@1.0.1 </tspan>
<tspan x="10" y="426">  │ │   ├── graceful-fs@4.1.11 </tspan>
<tspan x="10" y="442">  │ │   ├─┬ minimatch@3.0.3 </tspan>
<tspan x="10" y="458">  │ │   │ └─┬ brace-expansion@1.1.7 </tspan>
<tspan x="10" y="474">  │ │   │   ├── balanced-match@0.4.2 </tspan>
<tspan x="10" y="490">  │ │   │   └── concat-map@0.0.1 </tspan>
<tspan x="10" y="506">  │ │   ├─┬ nopt@3.0.6 </tspan>
<tspan x="10" y="522">  │ │   │ └── abbrev@1.1.0 </tspan>
<tspan x="10" y="538">  │ │   ├─┬ npmlog@4.0.2 </tspan>
<tspan x="10" y="554">  │ │   │ ├─┬ are-we-there-yet@1.1.4 </tspan>
<tspan x="10" y="570">  │ │   │ │ └── delegates@1.0.0 </tspan>
<tspan x="10" y="586">  │ │   │ ├── console-control-strings@1.1.0 </tspan>
<tspan x="10" y="602">  │ │   │ ├─┬ gauge@2.7.4 </tspan>
<tspan x="10" y="618">  │ │   │ │ ├── aproba@1.1.1 </tspan>
<tspan x="10" y="634">  │ │   │ │ ├── has-unicode@2.0.1 </tspan>
<tspan x="10" y="650">  │ │   │ │ ├── object-assign@4.1.1 </tspan>
<tspan x="10" y="666">  │ │   │ │ ├── signal-exit@3.0.2 </tspan>
<tspan x="10" y="682">  │ │   │ │ ├─┬ string-width@1.0.2 </tspan>
<tspan x="10" y="698">  │ │   │ │ │ ├── code-point-at@1.1.0 </tspan>
<tspan x="10" y="714">  │ │   │ │ │ └─┬ is-fullwidth-code-point@1.0.0 </tspan>
<tspan x="10" y="730">  │ │   │ │ │   └── number-is-nan@1.0.1 </tspan>
<tspan x="10" y="746">  │ │   │ │ └── wide-align@1.1.0 </tspan>
<tspan x="10" y="762">  │ │   │ └── set-blocking@2.0.0 </tspan>
<tspan x="10" y="778">  │ │   ├─┬ osenv@0.1.4 </tspan>
<tspan x="10" y="794">  │ │   │ ├── os-homedir@1.0.2 </tspan>
<tspan x="10" y="810">  │ │   │ └── os-tmpdir@1.0.2 </tspan>
<tspan x="10" y="826">  │ │   ├─┬ request@2.81.0 </tspan>
<tspan x="10" y="842">  │ │   │ ├── aws-sign2@0.6.0 </tspan>
<tspan x="10" y="858">  │ │   │ ├── aws4@1.6.0 </tspan>
<tspan x="10" y="874">  │ │   │ ├── caseless@0.12.0 </tspan>
<tspan x="10" y="890">  │ │   │ ├─┬ combined-stream@1.0.5 </tspan>
<tspan x="10" y="906">  │ │   │ │ └── delayed-stream@1.0.0 </tspan>
<tspan x="10" y="922">  │ │   │ ├── extend@3.0.0 </tspan>
<tspan x="10" y="938">  │ │   │ ├── forever-agent@0.6.1 </tspan>
<tspan x="10" y="954">  │ │   │ ├─┬ form-data@2.1.4 </tspan>
<tspan x="10" y="970">  │ │   │ │ └── asynckit@0.4.0 </tspan>
<tspan x="10" y="986">  │ │   │ ├─┬ har-validator@4.2.1 </tspan>
<tspan x="10" y="1002">  │ │   │ │ ├─┬ ajv@4.11.7 </tspan>
<tspan x="10" y="1018">  │ │   │ │ │ ├── co@4.6.0 </tspan>
<tspan x="10" y="1034">  │ │   │ │ │ └─┬ json-stable-stringify@1.0.1 </tspan>
<tspan x="10" y="1050">  │ │   │ │ │   └── jsonify@0.0.0 </tspan>
<tspan x="10" y="1066">  │ │   │ │ └── har-schema@1.0.5 </tspan>
<tspan x="10" y="1082">  │ │   │ ├─┬ hawk@3.1.3 </tspan>
<tspan x="10" y="1098">  │ │   │ │ ├── boom@2.10.1 </tspan>
<tspan x="10" y="1114">  │ │   │ │ ├── cryptiles@2.0.5 </tspan>
<tspan x="10" y="1130">  │ │   │ │ ├── hoek@2.16.3 </tspan>
<tspan x="10" y="1146">  │ │   │ │ └── sntp@1.0.9 </tspan>
<tspan x="10" y="1162">  │ │   │ ├─┬ http-signature@1.1.1 </tspan>
<tspan x="10" y="1178">  │ │   │ │ ├── assert-plus@0.2.0 </tspan>
<tspan x="10" y="1194">  │ │   │ │ ├─┬ jsprim@1.4.0 </tspan>
<tspan x="10" y="1210">  │ │   │ │ │ ├── assert-plus@1.0.0 </tspan>
<tspan x="10" y="1226">  │ │   │ │ │ ├── extsprintf@1.0.2 </tspan>
<tspan x="10" y="1242">  │ │   │ │ │ ├── json-schema@0.2.3 </tspan>
<tspan x="10" y="1258">  │ │   │ │ │ └── verror@1.3.6 </tspan>
<tspan x="10" y="1274">  │ │   │ │ └─┬ sshpk@1.13.0 </tspan>
<tspan x="10" y="1290">  │ │   │ │   ├── asn1@0.2.3 </tspan>
<tspan x="10" y="1306">  │ │   │ │   ├── assert-plus@1.0.0 </tspan>
<tspan x="10" y="1322">  │ │   │ │   ├── bcrypt-pbkdf@1.0.1 </tspan>
<tspan x="10" y="1338">  │ │   │ │   ├─┬ dashdash@1.14.1 </tspan>
<tspan x="10" y="1354">  │ │   │ │   │ └── assert-plus@1.0.0 </tspan>
<tspan x="10" y="1370">  │ │   │ │   ├── ecc-jsbn@0.1.1 </tspan>
<tspan x="10" y="1386">  │ │   │ │   ├─┬ getpass@0.1.6 </tspan>
<tspan x="10" y="1402">  │ │   │ │   │ └── assert-plus@1.0.0 </tspan>
<tspan x="10" y="1418">  │ │   │ │   ├── jodid25519@1.0.2 </tspan>
<tspan x="10" y="1434">  │ │   │ │   ├── jsbn@0.1.1 </tspan>
<tspan x="10" y="1450">  │ │   │ │   └── tweetnacl@0.14.5 </tspan>
<tspan x="10" y="1466">  │ │   │ ├── is-typedarray@1.0.0 </tspan>
<tspan x="10" y="1482">  │ │   │ ├── isstream@0.1.2 </tspan>
<tspan x="10" y="1498">  │ │   │ ├── json-stringify-safe@5.0.1 </tspan>
<tspan x="10" y="1514">  │ │   │ ├─┬ mime-types@2.1.15 </tspan>
<tspan x="10" y="1530">  │ │   │ │ └── mime-db@1.27.0 </tspan>
<tspan x="10" y="1546">  │ │   │ ├── oauth-sign@0.8.2 </tspan>
<tspan x="10" y="1562">  │ │   │ ├── performance-now@0.2.0 </tspan>
<tspan x="10" y="1578">  │ │   │ ├── qs@6.4.0 </tspan>
<tspan x="10" y="1594">  │ │   │ ├── safe-buffer@5.0.1 </tspan>
<tspan x="10" y="1610">  │ │   │ ├── stringstream@0.0.5 </tspan>
<tspan x="10" y="1626">  │ │   │ ├─┬ tough-cookie@2.3.2 </tspan>
<tspan x="10" y="1642">  │ │   │ │ └── punycode@1.4.1 </tspan>
<tspan x="10" y="1658">  │ │   │ ├── tunnel-agent@0.6.0 </tspan>
<tspan x="10" y="1674">  │ │   │ └── uuid@3.0.1 </tspan>
<tspan x="10" y="1690">  │ │   ├── rimraf@2.6.1 </tspan>
<tspan x="10" y="1706">  │ │   ├── semver@5.3.0 </tspan>
<tspan x="10" y="1722">  │ │   └─┬ tar@2.2.1 </tspan>
<tspan x="10" y="1738">  │ │     └── block-stream@0.0.9 </tspan>
<tspan x="10" y="1754">  │ └─┬ which@1.2.14 </tspan>
<tspan x="10" y="1770">  │   └── isexe@2.0.0 </tspan>
<tspan x="10" y="1786">  ├─┬ gulp-util@3.0.8 </tspan>
<tspan x="10" y="1802">  │ ├── array-differ@1.0.0 </tspan>
<tspan x="10" y="1818">  │ ├── array-uniq@1.0.3 </tspan>
<tspan x="10" y="1834">  │ ├── beeper@1.1.1 </tspan>
<tspan x="10" y="1850">  │ ├─┬ chalk@1.1.3 </tspan>
<tspan x="10" y="1866">  │ │ ├── ansi-styles@2.2.1 </tspan>
<tspan x="10" y="1882">  │ │ ├── escape-string-regexp@1.0.5 </tspan>
<tspan x="10" y="1898">  │ │ ├─┬ has-ansi@2.0.0 </tspan>
<tspan x="10" y="1914">  │ │ │ └── ansi-regex@2.1.1 </tspan>
<tspan x="10" y="1930">  │ │ ├── strip-ansi@3.0.1 </tspan>
<tspan x="10" y="1946">  │ │ └── supports-color@2.0.0 </tspan>
<tspan x="10" y="1962">  │ ├── dateformat@2.0.0 </tspan>
<tspan x="10" y="1978">  │ ├─┬ fancy-log@1.3.0 </tspan>
<tspan x="10" y="1994">  │ │ └── time-stamp@1.0.1 </tspan>
<tspan x="10" y="2010">  │ ├─┬ gulplog@1.0.0 </tspan>
<tspan x="10" y="2026">  │ │ └── glogg@1.0.0 </tspan>
<tspan x="10" y="2042">  │ ├─┬ has-gulplog@0.1.0 </tspan>
<tspan x="10" y="2058">  │ │ └── sparkles@1.0.0 </tspan>
<tspan x="10" y="2074">  │ ├── lodash._reescape@3.0.0 </tspan>
<tspan x="10" y="2090">  │ ├── lodash._reevaluate@3.0.0 </tspan>
<tspan x="10" y="2106">  │ ├── lodash._reinterpolate@3.0.0 </tspan>
<tspan x="10" y="2122">  │ ├─┬ lodash.template@3.6.2 </tspan>
<tspan x="10" y="2138">  │ │ ├── lodash._basecopy@3.0.1 </tspan>
<tspan x="10" y="2154">  │ │ ├── lodash._basetostring@3.0.1 </tspan>
<tspan x="10" y="2170">  │ │ ├── lodash._basevalues@3.0.0 </tspan>
<tspan x="10" y="2186">  │ │ ├── lodash._isiterateecall@3.0.9 </tspan>
<tspan x="10" y="2202">  │ │ ├─┬ lodash.escape@3.2.0 </tspan>
<tspan x="10" y="2218">  │ │ │ └── lodash._root@3.0.1 </tspan>
<tspan x="10" y="2234">  │ │ ├─┬ lodash.keys@3.1.2 </tspan>
<tspan x="10" y="2250">  │ │ │ ├── lodash._getnative@3.9.1 </tspan>
<tspan x="10" y="2266">  │ │ │ ├── lodash.isarguments@3.1.0 </tspan>
<tspan x="10" y="2282">  │ │ │ └── lodash.isarray@3.0.4 </tspan>
<tspan x="10" y="2298">  │ │ ├── lodash.restparam@3.6.1 </tspan>
<tspan x="10" y="2314">  │ │ └── lodash.templatesettings@3.1.1 </tspan>
<tspan x="10" y="2330">  │ ├── minimist@1.2.0 </tspan>
<tspan x="10" y="2346">  │ ├─┬ multipipe@0.1.2 </tspan>
<tspan x="10" y="2362">  │ │ └─┬ duplexer2@0.0.2 </tspan>
<tspan x="10" y="2378">  │ │   └─┬ readable-stream@1.1.14 </tspan>
<tspan x="10" y="2394">  │ │     ├── isarray@0.0.1 </tspan>
<tspan x="10" y="2410">  │ │     └── string_decoder@0.10.31 </tspan>
<tspan x="10" y="2426">  │ ├── object-assign@3.0.0 </tspan>
<tspan x="10" y="2442">  │ ├── replace-ext@0.0.1 </tspan>
<tspan x="10" y="2458">  │ └─┬ vinyl@0.5.3 </tspan>
<tspan x="10" y="2474">  │   ├── clone@1.0.2 </tspan>
<tspan x="10" y="2490">  │   └── clone-stats@0.0.1 </tspan>
<tspan x="10" y="2506">  └─┬ through2@2.0.3 </tspan>
<tspan x="10" y="2522">    ├─┬ readable-stream@2.2.9 </tspan>
<tspan x="10" y="2538">    │ ├── buffer-shims@1.0.0 </tspan>
<tspan x="10" y="2554">    │ ├── core-util-is@1.0.2 </tspan>
<tspan x="10" y="2570">    │ ├── inherits@2.0.3 </tspan>
<tspan x="10" y="2586">    │ ├── isarray@1.0.0 </tspan>
<tspan x="10" y="2602">    │ ├── process-nextick-args@1.0.7 </tspan>
<tspan x="10" y="2618">    │ ├── string_decoder@1.0.0 </tspan>
<tspan x="10" y="2634">    │ └── util-deprecate@1.0.2 </tspan>
<tspan x="10" y="2650">    └── xtend@4.0.1</tspan>
</text>
</svg>
